<?xml version="1.0" standalone="no"?>
<svg xmlns="http://www.w3.org/2000/svg" viewBox="0 0 114.096 36" width="114.096" height="36"><g fill="#b8ca9f" color="#b8ca9f" transform="translate(0 4) scale(0.5833334)"><svg width="48.0" height="48.0" x="0.0" y="0.0" viewBox="0 0 48 48"><path fill="currentColor" fill-rule="evenodd" d="M27.277.016c.25 1.305.528 2.625.66 3.989.337 3.256.337 6.526.484 9.81.117 3.022-.147 6.116.498 9.093.367 1.657.836 3.285 1.218 4.942.293 1.32.366 2.684.615 4.033.514 2.757 1.702 5.177 2.259 7.89.475 2.323.826 4.746 1.083 7.182L34.2 48H32.6c-.029-.19-.073-.396-.102-.572a69.75 69.75 0 0 0-2.244-8.124c-1.012-2.904-1.965-5.382-2.39-8.491-.352-2.89-1.408-5.573-1.804-8.433-.866-6.027-.088-12.26-.85-18.331a47.803 47.803 0 0 0-.59-3.23l-.173-.803h2.83zM18.82 0c.029 1.085.088 2.156.132 3.226.16 3.241.396 6.512.22 9.753-.294 5.792-2.479 11.394-4.033 16.776-.88 3.08-1.012 6.1-1.012 9.327 0 2.706-.226 5.352-.079 8.025l.064.892H10.74c-.454-2.01-.982-3.99-1.672-5.925-1.569-4.634-3.402-9.298-4.355-14.167-.425-2.302-.792-4.692-.748-7.053.059-2.45.484-4.84.85-7.26.65-4.21.963-8.307.984-12.523V.015h.835c.968 4.223.807 8.916.513 13.183-.176 2.523-.704 5.075-.689 7.597.03 2.61.381 5.118.895 7.64.967 4.855 2.625 9.43 4.091 14.064.059-1.833.147-3.695.176-5.529.073-2.669.352-5.132 1.203-7.61.997-2.904 2.243-5.661 3.065-8.668.792-2.8.894-5.455.835-8.403-.073-3.24-.249-6.496-.395-9.752-.047-.622-.113-1.29-.175-1.999L16.107 0h2.713zM.279.013C2.83.526 3.285 16.042 3.373 17.89c.147 3.49.308 6.951.161 10.456-.044.895-.073 1.774-.117 2.684.44 1.833.484 3.783 1.056 5.602.63 1.92 1.51 3.695 2.317 5.528a27.412 27.412 0 0 1 1.654 5.16l.135.662h-1.07c-.133-.322-.28-.63-.44-.938-.998-1.995-2.244-3.784-3.197-5.807-.176-.367-.338-.778-.528-1.188.12 2.453.434 4.857 1.007 7.235l.18.713h-2.61c-2.346-8.843-.381-18.61-.63-27.76-.132-4.034-.235-8.052-.455-12.085C.763 6.392.63 4.647.469 2.888.428 2.432.451.78.075.344L0 .277V.013h.279zm19.959 30.825c-.47 3.416-.836 6.892-.792 10.382.012 1.924.197 3.868.333 5.807l.063.969h-2.728c-.264-2.757-.44-5.514-.367-8.286.118-3.446.338-7.054.968-10.427.66-3.373 1.687-6.6 2.215-10.016.557-3.446 1.452-6.922 1.056-10.442-.29-2.551-.665-5.038-.886-7.544L20.003.026h2.713c.044.499.073.998.117 1.51.323 3.257 1.276 6.776 1.027 10.105a44.549 44.549 0 0 1-.425 3.666c.058 2.801-.074 5.632.058 8.491.132 2.596.396 5.236 1.115 7.7.616 2.067 1.232 4.164 1.628 6.305.613 3.107.911 6.165 1.037 9.262l.033.93h-2.449c-.425-4.326-.836-8.666-2.068-12.817-.777-2.654-1.451-5.352-1.789-8.108-.308 1.245-.586 2.477-.762 3.768zM29.903.012h2.67c.337 2.625.63 5.25.791 7.919.22 4.355.382 8.74.91 13.066.513 4.033 1.642 7.45 3.138 11.072 1.305 3.197 2.478 6.336 2.904 9.885.2 1.697.272 3.437.298 5.174l.01.868H37.91c.015-2.097-.044-4.165-.366-6.218-.587-3.725-2.068-6.922-3.417-10.31-2.918-7.391-3.021-15.442-3.49-23.479-.147-2.405-.235-4.854-.616-7.259l-.059-.359-.059-.36h2.67zm6.105.004c0 .088.015.176.015.264.528 7.333 1.159 14.753 2.962 21.822.558 2.229 1.423 4.34 2.317 6.408-.997-4.517-1.378-9.004-1.627-13.712-.191-2.786-.602-5.66-.63-8.432-.03-2.214.439-4.209.747-6.35h2.361c-.176 1.027-.381 2.068-.47 3.094-.073 1.35.03 2.61.162 3.96.293 2.786.455 5.631.587 8.447.176 3.124.249 6.335.865 9.371.513 2.566 1.261 5.074 1.76 7.626.542 2.8.718 5.367.469 8.227-.03.22-.059.484-.073.704.117 2.17-.074 4.37-.323 6.54h-2.214c0-3.373.176-6.878-.807-10.119-.938-3.05-2.464-5.719-3.666-8.579a44.067 44.067 0 0 1-2.728-9.194c-1.202-6.497-1.364-13.404-1.73-20.077zM46.387.012c0 .381 0 .762.03 1.144.131 3.153.542 6.306.615 9.473.088 3.095.235 6.203.748 9.24l.11.558.11.57v17.584a35.202 35.202 0 0 0-.22-3.036c-.63-5.895-2.302-11.541-2.977-17.437-.352-3.02-.337-5.983-.352-9.033-.015-2.875-.176-5.764-.117-8.667 0-.088.013-.17.021-.258l.008-.138h2.024zM10.444.015c.279 1.1.47 2.229.66 3.255.455 2.537.675 5.661.264 8.257-.41 2.903-1.437 5.382-1.54 8.403-.014.381-.029.792-.029 1.173.543-1.437 1.012-2.874 1.51-4.37.587-1.672 1.408-3.535 1.408-5.397-.039-3.363-.437-6.715-.752-10.065L11.852.015h2.625c.015.616.044 1.217.118 1.818.19 2.097-.132 4.165.146 6.291.176 1.394.352 2.772.147 4.18-.22 1.716-.748 3.27-1.247 4.869-.513 1.569-.865 3.226-1.525 4.751-.645 1.393-2.024 8.565-2.053 9.811 0 .176-.235.176-.25 0-.014-1.29-1.583-8.638-1.539-11.087.03-2.8.69-5.44.777-8.197.103-2.919.323-5.94.19-8.843-.034-.962-.173-1.924-.257-2.879l-.05-.714h1.51z"></path></svg></g><path fill="#fffffd" fill-rule="nonzero" d="M1.94 0.94L1.85 6.70Q3.72 7.01 5.28 7.01Q6.84 7.01 7.27 6.98L7.27 6.98Q7.22 5.16 7.22 3.48Q7.22 1.80 7.22 1.20Q7.22 0.60 7.27 0.44Q7.32 0.29 7.58 0.14Q7.85 0 8.35 0L8.35 0Q9.07 0 9.07 0.86L9.07 0.86L9.07 9.36Q9.07 12 8.95 15.17L8.95 15.17Q8.93 15.86 7.78 15.86L7.78 15.86Q7.20 15.86 7.20 15.17L7.20 15.17L7.30 8.81Q6.53 8.86 5.20 8.86Q3.86 8.86 1.85 8.57L1.85 8.57Q1.85 11.74 2.14 15.19L2.14 15.19Q2.16 15.58 1.80 15.78Q1.44 15.98 0.90 15.98Q0.36 15.98 0.31 15.43L0.31 15.43Q0 12.02 0 8.71L0 8.71L0.14 1.22Q0.14 0.74 0.50 0.52Q0.86 0.29 1.27 0.29L1.27 0.29Q1.94 0.29 1.94 0.94L1.94 0.94ZM15.60 4.92L15.60 4.92Q17.38 4.92 18.47 6.29Q19.56 7.66 19.56 10.03Q19.56 12.41 18.36 14.14Q17.16 15.86 15.31 15.86L15.31 15.86Q13.30 15.86 12.02 14.14Q10.75 12.41 10.75 9.91Q10.75 7.42 12.07 6.17Q13.39 4.92 15.60 4.92ZM17.83 10.30Q17.83 8.38 17.28 7.48Q16.73 6.58 15.34 6.58Q13.94 6.58 13.18 7.43Q12.41 8.28 12.41 9.85Q12.41 11.42 13.22 12.77Q14.04 14.11 15.48 14.11L15.48 14.11Q16.30 14.11 16.87 13.42L16.87 13.42Q17.83 12.22 17.83 10.30ZM28.51 5.78L28.51 5.78Q28.49 5.69 28.49 5.47Q28.49 5.26 28.79 5.02Q29.09 4.78 29.40 4.78Q29.71 4.78 29.96 4.97Q30.22 5.16 30.24 5.40L30.24 5.40Q30.48 7.82 30.48 9.22Q30.48 10.61 30.41 11.38L30.41 11.38Q30.24 13.70 29.24 14.80Q28.25 15.89 26.18 15.89L26.18 15.89Q24.67 15.89 23.66 15.01Q22.66 14.14 22.25 12.72L22.25 12.72Q21.62 10.58 21.62 7.97L21.62 7.97Q21.62 6.84 21.74 5.69L21.74 5.69Q21.77 5.35 22.12 5.14Q22.46 4.92 22.76 4.92Q23.06 4.92 23.26 5.11Q23.45 5.30 23.42 5.62L23.42 5.62Q23.30 6.86 23.30 7.86Q23.30 8.86 23.35 9.65L23.35 9.65Q23.50 11.57 24.24 12.92Q24.98 14.28 26.18 14.28L26.18 14.28Q28.80 14.28 28.80 9.82L28.80 9.82Q28.80 7.15 28.51 5.78ZM35.38 4.80L35.38 4.80Q37.10 4.80 38.15 5.56Q39.19 6.31 39.19 7.58L39.19 7.58Q39.19 9.55 37.97 10.49L37.97 10.49Q37.08 11.16 35.57 11.16L35.57 11.16Q34.99 11.16 34.32 11.06L34.32 11.06Q34.39 12.48 34.39 13.52Q34.39 14.57 34.34 15.34L34.34 15.34Q34.30 15.89 33.65 15.89Q33.00 15.89 32.80 15.62Q32.59 15.36 32.59 14.83L32.59 14.83L32.59 5.81Q32.64 4.80 35.38 4.80ZM34.27 6.50L34.27 6.50Q34.22 7.22 34.22 8.05Q34.22 8.88 34.22 9.36L34.22 9.36Q34.85 9.43 35.62 9.43Q36.38 9.43 36.89 9.14L36.89 9.14Q37.58 8.76 37.58 7.70L37.58 7.70Q37.58 7.61 37.58 7.49L37.58 7.49Q37.54 6.86 36.43 6.58L36.43 6.58Q35.81 6.41 35.28 6.41Q34.75 6.41 34.27 6.50ZM43.03 15.24L43.03 15.24Q42.94 15.84 42.18 15.84Q41.42 15.84 41.42 15.22L41.42 15.22Q41.42 13.80 42.82 9.46L42.82 9.46Q43.44 7.46 44.21 6.14Q44.98 4.82 45.70 4.82L45.70 4.82Q46.08 4.82 46.37 5.28Q46.66 5.74 47.41 7.36Q48.17 8.98 48.67 10.79Q49.18 12.60 49.78 15.22L49.78 15.22Q49.78 15.53 49.56 15.71Q49.34 15.89 49.03 15.89L49.03 15.89Q48.26 15.89 48.07 15.22L48.07 15.22L47.23 11.93Q45.12 11.93 43.85 11.59L43.85 11.59Q43.13 14.23 43.03 15.24ZM45.62 7.03L45.62 7.03Q44.83 8.38 44.33 10.03L44.33 10.03Q45.38 10.32 46.82 10.32L46.82 10.32Q46.37 8.66 45.62 7.03ZM55.22 5.40Q55.25 5.14 55.61 4.91Q55.97 4.68 56.44 4.68Q56.90 4.68 56.95 5.02L56.95 5.02Q57.36 9.02 57.36 10.56Q57.36 12.10 57.31 12.77L57.31 12.77Q57.17 14.23 56.54 15.06Q55.92 15.89 54.48 15.89Q53.04 15.89 52.39 15.02Q51.74 14.16 51.53 12.65L51.53 12.65Q51.53 12.36 51.85 12.13Q52.18 11.90 52.50 11.90Q52.82 11.90 52.92 12.05Q53.02 12.19 53.15 12.85Q53.28 13.51 53.71 13.96Q54.14 14.40 54.55 14.40L54.55 14.40Q55.22 14.40 55.46 13.80L55.46 13.80Q55.82 12.70 55.82 11.11Q55.82 9.53 55.54 7.68Q55.25 5.83 55.22 5.40L55.22 5.40ZM59.93 16.13L59.71 15.26Q59.40 15.02 59.40 14.77Q59.40 14.52 59.57 14.30L59.57 14.30Q59.33 12.46 59.23 10.03Q59.14 7.61 59.14 7.28Q59.14 6.96 59.15 6.59Q59.16 6.22 59.26 5.76L59.26 5.76Q59.42 4.85 60.36 4.85L60.36 4.85Q62.83 4.85 65.12 7.08Q67.42 9.31 67.42 11.93L67.42 11.93Q67.42 13.90 66.19 14.89Q64.97 15.89 62.86 15.89L62.86 15.89Q62.45 15.89 61.70 15.79L61.70 15.79Q61.70 16.18 61.39 16.46Q61.08 16.75 60.67 16.75L60.67 16.75Q60.05 16.75 59.93 16.13L59.93 16.13ZM60.94 6.62L60.94 6.62Q60.91 6.89 60.91 7.54Q60.91 8.18 61.04 10.40Q61.18 12.62 61.39 14.18L61.39 14.18Q61.58 14.23 62.88 14.23L62.88 14.23Q65.69 14.23 65.69 12.65L65.69 12.65Q65.69 10.63 64.40 9.05Q63.12 7.46 60.94 6.62ZM71.35 15.24L71.35 15.24Q71.26 15.84 70.50 15.84Q69.74 15.84 69.74 15.22L69.74 15.22Q69.74 13.80 71.14 9.46L71.14 9.46Q71.76 7.46 72.53 6.14Q73.30 4.82 74.02 4.82L74.02 4.82Q74.40 4.82 74.69 5.28Q74.98 5.74 75.73 7.36Q76.49 8.98 76.99 10.79Q77.50 12.60 78.10 15.22L78.10 15.22Q78.10 15.53 77.88 15.71Q77.66 15.89 77.35 15.89L77.35 15.89Q76.58 15.89 76.39 15.22L76.39 15.22L75.55 11.93Q73.44 11.93 72.17 11.59L72.17 11.59Q71.45 14.23 71.35 15.24ZM73.94 7.03L73.94 7.03Q73.15 8.38 72.65 10.03L72.65 10.03Q73.70 10.32 75.14 10.32L75.14 10.32Q74.69 8.66 73.94 7.03Z" transform="translate(36, 10.057)"></path></svg>